<svg width="31" height="31" viewBox="0 0 31 31" fill="none" xmlns="http://www.w3.org/2000/svg">
<path d="M15.714 30.312H15.8336C21.7901 30.312 25.2475 29.7123 27.6965 27.3347C30.1936 24.8126 30.7703 21.3318 30.7703 15.3986V15.2308C30.7703 9.29935 30.1936 5.84187 27.6965 3.29471C25.2493 0.917133 21.7669 0.317383 15.8354 0.317383H15.7158C9.75932 0.317383 6.30004 0.917133 3.85107 3.29471C1.35389 5.81688 0.777344 9.29935 0.777344 15.2308V15.3986C0.777344 21.3301 1.35389 24.7876 3.85107 27.3347C6.27685 29.7123 9.75932 30.312 15.714 30.312Z" fill="#4E4E50"/>
<path d="M27.1994 15.0849C27.1994 14.9707 27.1066 14.8761 26.9923 14.8708C22.8928 14.7155 20.3978 14.1926 18.6523 12.4471C16.9032 10.6981 16.3821 8.20121 16.2268 4.09276C16.2233 3.97854 16.1287 3.88574 16.0126 3.88574H15.5343C15.4201 3.88574 15.3255 3.97854 15.3202 4.09276C15.1649 8.19943 14.6438 10.6981 12.8947 12.4471C11.1475 14.1944 8.6542 14.7155 4.55468 14.8708C4.44046 14.8743 4.34766 14.9689 4.34766 15.0849V15.5632C4.34766 15.6775 4.44046 15.7721 4.55468 15.7774C8.6542 15.9327 11.1493 16.4556 12.8947 18.2011C14.6402 19.9466 15.1613 22.4363 15.3184 26.5286C15.322 26.6428 15.4166 26.7357 15.5326 26.7357H16.0126C16.1269 26.7357 16.2215 26.6428 16.2268 26.5286C16.3839 22.4363 16.905 19.9466 18.6506 18.2011C20.3978 16.4538 22.891 15.9327 26.9905 15.7774C27.1048 15.7738 27.1976 15.6793 27.1976 15.5632V15.0849H27.1994Z" fill="#E7E7E7"/>
</svg>
