<svg width="105" height="110" viewBox="0 0 105 110" fill="none" xmlns="http://www.w3.org/2000/svg">
<mask id="mask0_2095_2591" style="mask-type:luminance" maskUnits="userSpaceOnUse" x="0" y="0" width="105" height="110">
<path fill-rule="evenodd" clip-rule="evenodd" d="M50.8676 109.558C49.3406 104.29 49.1679 98.9428 52.4621 93.3915C53.3045 92.0607 54.2334 90.9213 55.427 90.3665L55.326 63.4978L33.7266 38.907C33.7328 38.8181 33.7455 38.7137 33.7455 38.6263C33.7463 38.6168 33.7637 38.3936 33.8404 5.54681C32.0251 8.31503 30.4199 11.3811 29.0223 14.7413C27.0381 20.8527 26.1874 27.3131 26.0458 33.9917C25.5839 38.2101 24.6489 42.2707 22.272 45.8504C19.3153 49.8762 16.7066 54.2503 14.8839 59.4108L14.5838 60.9862L19.5929 61.3482C19.9094 60.476 20.2934 59.6004 20.7511 58.7211C22.0704 56.9228 22.9166 56.9634 23.598 58.5685C24.1275 59.6333 24.6612 60.6963 25.2085 61.754L32.5856 62.287L36.9322 67.4459C39.1607 67.7829 41.2174 68.799 42.9983 70.9058C44.5343 72.9695 46.1574 73.77 47.8351 73.7774C50.3756 73.787 51.7437 74.9378 51.662 77.4999C53.0969 84.9683 51.5032 91.2141 44.8586 95.4208C41.6805 97.0606 39.9517 98.7184 39.5709 100.393C39.1699 102.156 40.2632 103.938 42.7326 105.737C44.3264 107.073 46.2972 107.938 50.8676 109.558ZM56.7493 90.018C58.209 89.9035 60.025 90.5762 62.4015 92.4875L64.2545 94.1696L74.6986 84.1518L97.9468 81.4178L73.2221 79.8379L71.1494 75.1008L56.6891 74.0142L56.7493 90.018ZM65.2382 95.0628L68.1419 97.6989C75.2541 102.563 79.6225 100.152 83.8748 97.433C88.0248 94.0928 92.5223 90.027 98.592 82.6786L75.2926 85.4187L65.2382 95.0628ZM100.556 80.2549C101.303 79.315 102.073 78.3273 102.868 77.2869C105.917 74.1768 106.138 71.8794 100.211 68.6721L93.7185 65.3195L87.539 76.3323L72.645 75.2131L74.1116 78.5651L100.556 80.2549ZM92.5386 64.7103L77.1431 56.7603C74.9489 54.845 74.1284 52.9501 74.3792 49.7408C75.3649 45.4454 74.6073 43.4095 71.6153 39.5306C70.3691 37.9217 68.5409 36.4056 66.1271 34.9829L51.7015 40.5375L56.5995 62.9405L56.6478 62.9955L56.6842 72.6821L86.7958 74.9449L92.5386 64.7103ZM64.6185 34.1459C60.1795 31.822 54.091 29.7611 46.3325 27.9666L35.3199 38.7138L54.7901 60.8806L50.1621 39.7123L64.6185 34.1459ZM45.3921 27.0323L45.1714 26.7877C43.6667 18.0482 42.695 9.44417 39.6577 1.53228C39.1066 0.287925 38.1892 -0.128996 37.2993 0.892334C36.887 1.37684 36.5526 1.79515 36.2689 2.17916C35.8946 2.65099 35.5278 3.13343 35.1685 3.62631C35.1164 26.1151 35.0905 34.1944 35.0784 37.0974L45.3921 27.0323ZM14.3338 62.2991L11.5324 77.0041L17.7173 83.983C17.5611 80.1298 17.7066 76.5786 19.3459 74.5218C18.2506 70.6161 18.0128 66.6672 19.1699 62.6486L14.3338 62.2991ZM11.2195 78.6472L10.7913 80.8947C8.99319 89.6104 6.54601 97.598 0.0546875 101.049C1.83198 101.571 3.97426 101.79 6.33366 101.702C15.9719 99.4132 18.2807 93.93 17.8272 86.1032L11.2195 78.6472ZM25.9347 63.1374C26.8651 64.8832 27.8439 66.6098 28.9132 68.3001C31.0341 67.7274 33.1149 67.3133 35.091 67.3135L31.9379 63.5712L25.9347 63.1374ZM11.2799 101.14C17.3314 99.6928 19.1661 94.7343 18.973 87.3962L33.9448 104.29C32.4933 103.287 31.2625 102.142 30.2674 100.846C27.0989 98.299 22.9664 97.2392 16.3948 99.9417C14.5853 100.451 12.8813 100.849 11.2799 101.14ZM26.2907 93.657C30.986 94.5794 35.9152 95.7113 40.6025 96.6266C37.287 99.4346 37.1144 102.752 41.6655 106.837C40.2111 106.58 38.7792 106.063 37.3023 106.066L37.2881 106.066L26.2907 93.657ZM24.2046 61.6814C23.8364 60.9544 23.6225 60.3324 23.2485 59.6014C22.6906 58.5233 22.1344 58.322 21.5078 59.6147C21.1861 60.2236 20.9391 60.7361 20.7337 61.4306L24.2046 61.6814Z" fill="white"/>
</mask>
<g mask="url(#mask0_2095_2591)">
<path fill-rule="evenodd" clip-rule="evenodd" d="M51.2856 110.354C49.7268 104.977 49.5504 99.518 52.9133 93.8511C53.7732 92.4925 54.7215 91.3294 55.9399 90.763L55.8368 63.3346L33.7875 38.2315C33.7938 38.1407 33.8068 38.0342 33.8068 37.9449C33.8075 37.9352 33.8254 37.7074 33.9036 4.17627C32.0505 7.00216 30.4119 10.1321 28.9851 13.5623C26.9596 19.801 26.0912 26.396 25.9467 33.2138C25.4751 37.52 24.5207 41.6652 22.0943 45.3195C19.0759 49.4292 16.4128 53.8944 14.5523 59.1624L14.2459 60.7707L19.3593 61.1402C19.6824 60.2498 20.0744 59.356 20.5417 58.4584C21.8884 56.6226 22.7523 56.664 23.4478 58.3026C23.9884 59.3896 24.5332 60.4747 25.0919 61.5544L32.6227 62.0986L37.0599 67.3649C39.3348 67.709 41.4343 68.7462 43.2523 70.8969C44.8204 73.0036 46.4772 73.8208 48.1899 73.8284C50.7833 73.8382 52.18 75.0128 52.0966 77.6283C53.5613 85.2524 51.9344 91.6283 45.1514 95.9227C41.9071 97.5966 40.1422 99.2889 39.7535 100.999C39.3442 102.798 40.4602 104.618 42.9811 106.454C44.6081 107.818 46.62 108.7 51.2856 110.354ZM57.2898 90.4073C58.7799 90.2904 60.6337 90.9771 63.0598 92.9282L64.9513 94.6454L75.613 84.4188L99.3456 81.6278L74.1058 80.0151L71.99 75.1793L57.2284 74.07L57.2898 90.4073ZM65.9556 95.5572L68.9197 98.2482C76.1801 103.213 80.6395 100.752 84.9804 97.9768C89.2169 94.567 93.8081 90.4165 100.004 82.915L76.2195 85.7121L65.9556 95.5572ZM102.009 80.4407C102.772 79.4813 103.558 78.473 104.37 77.411C107.482 74.236 107.707 71.8908 101.657 68.6167L95.0292 65.1943L88.7209 76.4365L73.5167 75.2939L75.0138 78.7158L102.009 80.4407ZM93.8247 64.5723L78.1085 56.4567C75.8685 54.5015 75.0309 52.5671 75.287 49.2909C76.2932 44.9061 75.5198 42.8277 72.4656 38.8681C71.1933 37.2257 69.3271 35.678 66.863 34.2256L52.1368 39.8959L57.1369 62.7656L57.1862 62.8218L57.2233 72.7102L87.9623 75.0201L93.8247 64.5723ZM65.323 33.3712C60.7914 30.9988 54.5761 28.8951 46.656 27.0632L35.414 38.0343L55.2898 60.6628L50.5653 39.0536L65.323 33.3712ZM45.696 26.1094L45.4707 25.8597C43.9346 16.9381 42.9427 8.15482 39.8421 0.0780977C39.2795 -1.19218 38.343 -1.61779 37.4346 -0.57518C37.0137 -0.0805835 36.6724 0.346439 36.3827 0.738455C36.0006 1.22011 35.6262 1.71261 35.2594 2.21575C35.2063 25.1731 35.1798 33.4207 35.1675 36.3842L45.696 26.1094ZM13.9906 62.1109L11.1309 77.1222L17.4447 84.2465C17.2852 80.3131 17.4338 76.6879 19.1071 74.5883C17.9891 70.6011 17.7463 66.5699 18.9275 62.4676L13.9906 62.1109ZM10.8114 78.7996L10.3744 81.0938C8.53878 89.9912 6.04062 98.1452 -0.585938 101.668C1.22838 102.201 3.41529 102.425 5.82385 102.334C15.6629 99.9982 18.0198 94.4007 17.5568 86.4109L10.8114 78.7996ZM25.8332 62.9667C26.7831 64.7489 27.7822 66.5114 28.8738 68.2369C31.0389 67.6523 33.163 67.2296 35.1803 67.2297L31.9615 63.4095L25.8332 62.9667ZM10.8732 101.761C17.0507 100.284 18.9236 95.2218 18.7265 87.7309L34.0102 104.977C32.5285 103.953 31.272 102.784 30.2562 101.461C27.0217 98.8607 22.8031 97.7789 16.0946 100.538C14.2474 101.057 12.5078 101.464 10.8732 101.761ZM26.1967 94.1221C30.9898 95.0637 36.0217 96.2192 40.8066 97.1535C37.422 100.02 37.2458 103.407 41.8918 107.576C40.4071 107.314 38.9453 106.786 37.4377 106.79L37.4231 106.79L26.1967 94.1221ZM24.067 61.4803C23.6912 60.7382 23.4728 60.1032 23.0911 59.357C22.5216 58.2565 21.9537 58.0509 21.3141 59.3706C20.9857 59.9922 20.7335 60.5154 20.5239 61.2243L24.067 61.4803Z" fill="#848485"/>
<path fill-rule="evenodd" clip-rule="evenodd" d="M45.3122 27.7923L49.7062 26.0339C59.9588 13.7253 80.4202 -11.1119 80.2444 -11.9911C80.0686 -12.8703 31.2514 -14.5554 6.86472 -15.2881L-20.5977 85.1595L0.493479 111.975L13.6755 99.2266L17.1906 94.1713L18.2891 86.9179L11.2588 78.7854L6.86472 73.0707V61.2016L32.7893 62.5204L36.5242 68.0153L47.0698 90.2149L39.6 99.2266L38.5015 102.304L41.3576 106.26L47.0698 122.086L55.8578 106.26V62.5204L35.3705 38.7822L45.3122 27.7923ZM87.2911 75.5596L94.1825 63.4561H120.216C120.654 63.4561 119.417 67.5785 118.021 72.229L118.021 72.2296C117.074 75.3863 116.053 78.7861 115.434 81.3052L73.8138 78.6217L71.5176 74.7935L87.2911 75.5596ZM62.9041 96.771L74.9723 85.0359L101.139 81.7637L84.5592 103.428L64.4832 101.059L62.9041 96.771Z" fill="#4E4E50"/>
</g>
</svg>
