<svg width="22" height="32" viewBox="0 0 22 32" fill="none" xmlns="http://www.w3.org/2000/svg">
<path d="M10.8138 16.1344C12.9478 16.1344 14.8838 15.2544 16.2698 13.8684C17.6558 12.4824 18.5358 10.5464 18.5358 8.41243C18.5358 6.27843 17.6558 4.34243 16.2698 2.95643C14.8838 1.57043 12.9478 0.69043 10.8138 0.69043C8.6798 0.69043 6.7438 1.57043 5.3578 2.95643C3.9718 4.32043 3.0918 6.25643 3.0918 8.41243C3.0918 10.5684 3.9718 12.4824 5.3578 13.8684C6.7438 15.2544 8.7018 16.1344 10.8138 16.1344ZM8.3498 5.90443C8.9878 5.26643 9.8678 4.87043 10.8358 4.87043C11.8258 4.87043 12.6838 5.26643 13.3218 5.90443C13.9598 6.54243 14.3558 7.42243 14.3558 8.39043C14.3558 9.38043 13.9598 10.2384 13.3218 10.8764C12.6838 11.5144 11.8038 11.9104 10.8358 11.9104C9.8458 11.9104 8.9878 11.5144 8.3498 10.8764C7.7118 10.2384 7.3158 9.35843 7.3158 8.39043C7.3158 7.42243 7.7338 6.54243 8.3498 5.90443Z" fill="#4E4E50"/>
<path d="M21.2389 19.2539L18.9729 16.1519C18.8409 15.9759 18.5769 15.9539 18.4229 16.1079C16.2889 17.9339 13.6489 19.1219 10.8109 19.1219C7.97293 19.1219 5.35493 17.9339 3.19893 16.1079C3.04493 15.9759 2.78093 15.9979 2.64893 16.1519L0.382931 19.2539C0.272931 19.4079 0.294931 19.6059 0.426931 19.7379C2.34093 21.2779 4.56293 22.3339 6.87293 22.8839L2.07693 31.3319C1.94493 31.5739 2.12093 31.8819 2.38493 31.8819H7.07093C7.22493 31.8819 7.35693 31.7939 7.40093 31.6399L10.7449 24.1599L14.0889 31.6399C14.1329 31.7719 14.2649 31.8819 14.4189 31.8819H19.1049C19.3909 31.8819 19.5449 31.5959 19.4129 31.3319L14.6169 22.8839C16.9269 22.3339 19.1489 21.3219 21.0629 19.7379C21.3489 19.6059 21.3709 19.4079 21.2389 19.2539Z" fill="#4E4E50"/>
</svg>
