<svg width="35" height="31" viewBox="0 0 35 31" fill="none" xmlns="http://www.w3.org/2000/svg">
<path d="M18.698 18.4579H6.01398V13.376H18.698C19.4389 13.376 19.954 13.5068 20.2126 13.7351C20.4711 13.9635 20.6313 14.3869 20.6313 15.0056V16.8303C20.6313 17.4821 20.4711 17.9056 20.2126 18.1339C19.954 18.3623 19.4389 18.4598 18.698 18.4598V18.4579ZM19.5681 8.58497H0.634766V30.3175H6.01398V23.247H15.9273L20.6313 30.3175H26.6549L21.4686 23.2138C23.3807 22.9269 24.2393 22.3337 24.9474 21.3559C25.6554 20.3782 26.0105 18.815 26.0105 16.7288V15.0992C26.0105 13.862 25.8812 12.8842 25.6554 12.1348C25.4297 11.3854 25.0438 10.7336 24.4959 10.1482C23.9171 9.59391 23.2726 9.2036 22.4989 8.94209C21.7252 8.71375 20.7586 8.58301 19.5681 8.58301V8.58497Z" fill="#4E4E50"/>
<path d="M30.7869 8.5826C33.0693 8.5826 34.9195 6.73236 34.9195 4.44999C34.9195 2.16762 33.0693 0.317383 30.7869 0.317383C28.5045 0.317383 26.6543 2.16762 26.6543 4.44999C26.6543 6.73236 28.5045 8.5826 30.7869 8.5826Z" fill="#4E4E50"/>
</svg>
