<svg width="38" height="22" viewBox="0 0 38 22" fill="none" xmlns="http://www.w3.org/2000/svg">
<path d="M37.2254 2.33771C37.521 3.15531 36.5543 5.03298 34.334 7.97074C34.0254 8.37846 33.6089 8.92139 33.0824 9.59949C32.0791 10.8785 31.5029 11.7132 31.3454 12.1102C31.1296 12.6338 31.2181 13.151 31.6151 13.6617C31.8352 13.9299 32.3574 14.4536 33.1795 15.2325H33.1968L33.2184 15.2518L33.2356 15.2711L33.2788 15.3119C35.087 16.9836 36.3127 18.3977 36.9579 19.5458C36.9967 19.6102 37.0377 19.6896 37.0808 19.784C37.1262 19.8806 37.1736 20.0501 37.2168 20.2926C37.2621 20.5351 37.2599 20.7518 37.2082 20.945C37.1585 21.1359 36.9967 21.3119 36.727 21.4707C36.4572 21.6295 36.0775 21.7089 35.5898 21.7089L30.6592 21.7861C30.3506 21.8484 29.9881 21.8183 29.5803 21.6896C29.1682 21.5608 28.8337 21.4213 28.5769 21.269L28.1928 21.0394C27.8044 20.7711 27.3578 20.3634 26.8442 19.8141C26.3307 19.2647 25.8883 18.7711 25.5258 18.3312C25.159 17.8892 24.7663 17.5201 24.3498 17.2175C23.9333 16.9171 23.5708 16.8184 23.2579 16.9214C23.2191 16.9342 23.1695 16.9557 23.1069 16.9879C23.0443 17.0201 22.9343 17.1123 22.7789 17.2647C22.6279 17.4171 22.4876 17.6059 22.3668 17.8312C22.2459 18.0565 22.1359 18.387 22.0388 18.8269C21.9417 19.269 21.9007 19.7647 21.9115 20.3119C21.9115 20.5029 21.8899 20.6789 21.8446 20.8377C21.8014 20.9986 21.7518 21.1166 21.7022 21.1917L21.6267 21.2883C21.3958 21.5308 21.0527 21.6724 20.606 21.7089H18.3899C17.475 21.7604 16.5407 21.6552 15.574 21.3934C14.6138 21.1338 13.7658 20.7947 13.0408 20.3784C12.3157 19.9621 11.6533 19.5415 11.0556 19.1123C10.4622 18.6853 10.0069 18.3183 9.69831 18.0115L9.21712 17.5501C9.0855 17.4214 8.90855 17.2325 8.6863 16.975C8.46404 16.7175 8.00443 16.1381 7.30746 15.2304C6.61696 14.3227 5.93294 13.3591 5.26834 12.3355C4.59726 11.3141 3.81397 9.96644 2.90769 8.29263C2.00142 6.62096 1.16203 4.88277 0.391694 3.0802C0.316171 2.87634 0.277344 2.70467 0.277344 2.56519C0.277344 2.4257 0.294593 2.3227 0.331276 2.25618L0.41112 2.1403C0.601007 1.89996 0.96784 1.77764 1.50729 1.77764L6.78744 1.73686C6.93848 1.76476 7.08737 1.80338 7.22979 1.86346C7.36789 1.91926 7.47362 1.97506 7.53835 2.02656L7.63545 2.08236C7.8426 2.22184 7.99365 2.42784 8.09938 2.69608C8.35616 3.33342 8.65177 3.99437 8.98408 4.67891C9.31638 5.36346 9.58178 5.88276 9.77167 6.24113L10.0846 6.79693C10.4557 7.56302 10.8139 8.22826 11.1635 8.79049C11.5087 9.35272 11.8216 9.79048 12.0956 10.1016C12.374 10.4149 12.6394 10.6617 12.8962 10.8398C13.153 11.0201 13.3731 11.1081 13.55 11.1081C13.7313 11.1081 13.9039 11.0759 14.0722 11.0136C14.0981 11.0008 14.1304 10.9686 14.1693 10.9171C14.2081 10.8656 14.2836 10.724 14.4002 10.4965C14.5145 10.2669 14.603 9.96645 14.6569 9.59521C14.7152 9.22396 14.7756 8.7068 14.8425 8.04156C14.9051 7.37848 14.9051 6.58019 14.8425 5.64886C14.8166 5.13813 14.7584 4.67034 14.6699 4.24974C14.5771 3.82914 14.4886 3.53514 14.4002 3.3699L14.2815 3.14029C13.9621 2.70681 13.414 2.43215 12.6459 2.31627C12.4776 2.29052 12.5099 2.136 12.7387 1.85489C12.9587 1.61454 13.2026 1.42142 13.4723 1.27979C14.1542 0.949315 15.6884 0.792653 18.0792 0.82055C19.1322 0.833426 19.9975 0.914982 20.6794 1.06734C20.9361 1.13172 21.1519 1.21754 21.3246 1.32699C21.4972 1.43643 21.6288 1.5888 21.7216 1.78622C21.8101 1.98579 21.877 2.18964 21.9244 2.39994C21.9676 2.61024 21.9913 2.89995 21.9913 3.2712C21.9913 3.64244 21.9827 3.99222 21.9697 4.32484C21.9568 4.65531 21.9395 5.10594 21.9244 5.67461C21.9029 6.24543 21.8942 6.77117 21.8942 7.25615C21.8942 7.39563 21.8856 7.66387 21.8726 8.06087C21.8597 8.45786 21.8554 8.76258 21.864 8.97932C21.8683 9.19821 21.8942 9.45786 21.9309 9.75614C21.9676 10.0544 22.0453 10.3055 22.1553 10.5029C22.2611 10.7025 22.4078 10.857 22.5847 10.9729C22.6904 11.0008 22.8005 11.0244 22.9127 11.0501C23.0314 11.0759 23.1954 11.0051 23.4133 10.8377C23.6334 10.6725 23.8772 10.4514 24.147 10.1767C24.4167 9.90206 24.749 9.47503 25.146 8.89134C25.5474 8.3098 25.9811 7.62311 26.4558 6.83126C27.2262 5.50509 27.9145 4.06732 28.5165 2.52011C28.5705 2.39136 28.6352 2.28192 28.7107 2.18536C28.7862 2.09094 28.8574 2.02441 28.9222 1.98364L29.002 1.92786C29.0279 1.91498 29.056 1.89781 29.0991 1.88064C29.138 1.86133 29.2178 1.84201 29.3473 1.82484C29.4746 1.80338 29.604 1.80124 29.7314 1.81412L35.2812 1.7755C35.7818 1.71112 36.1918 1.72828 36.5155 1.8227C36.8349 1.91712 37.0334 2.02442 37.1089 2.13601L37.2254 2.33771Z" fill="#4E4E50"/>
</svg>
