<svg width="38" height="26" viewBox="0 0 38 26" fill="none" xmlns="http://www.w3.org/2000/svg">
<path fill-rule="evenodd" clip-rule="evenodd" d="M31.876 25.4738C34.8337 25.4738 37.2314 23.8839 37.2314 21.9227C37.6388 15.2194 37.613 11.4609 37.2314 4.75777C37.2314 2.79659 34.8337 1.20665 31.876 1.20665C21.6184 0.690213 15.8724 0.685044 5.80245 1.20665C2.84485 1.20665 0.447121 2.79652 0.447121 4.75777C-0.144065 11.5535 -0.0801886 15.3018 0.447121 21.9227C0.447121 23.8839 2.84476 25.4738 5.80245 25.4738C15.9919 25.9393 21.6922 25.9245 31.876 25.4738ZM15.13 19.3009L25.3848 13.7811L15.13 8.26116L15.13 19.3009Z" fill="#4E4E50"/>
</svg>
