<svg width="108" height="104" viewBox="0 0 108 104" fill="none" xmlns="http://www.w3.org/2000/svg">
<path d="M54.8657 102.287V26.6832M51.5484 26.6835C52.4843 26.8935 53.4706 26.6361 54.1445 25.9622C54.8183 25.2884 55.0754 24.3017 54.8657 23.3661C54.0257 19.9346 50.9312 8.44413 47.7537 5.26666C43.795 1.30793 37.352 1.29145 33.4128 5.23059C29.474 9.16945 29.4899 15.6125 33.4489 19.5715C36.6784 22.801 48.117 25.8435 51.5484 26.6835ZM55.6756 23.3658C55.4656 24.3018 55.723 25.2881 56.3969 25.962C57.0708 26.6358 58.0574 26.8929 58.993 26.6832C62.4245 25.8432 73.915 22.7487 77.0925 19.5712C81.0512 15.6125 81.0677 9.16946 77.1285 5.23032C73.1897 1.29145 66.7466 1.30738 62.7876 5.26639C59.5582 8.49586 56.5156 19.9344 55.6756 23.3658ZM5.72353 53.1444H102.118C104.206 53.1444 105.898 51.452 105.898 49.3642V30.4634C105.898 28.3757 104.206 26.6832 102.118 26.6832H5.72353C3.6358 26.6832 1.94336 28.3757 1.94336 30.4634V49.3642C1.94336 51.452 3.6358 53.1444 5.72353 53.1444ZM96.4476 53.1444V98.5065C96.4476 100.594 94.7552 102.287 92.6675 102.287H15.174C13.0862 102.287 11.3938 100.594 11.3938 98.5065V53.1444H96.4476Z" stroke="#4E4E50" stroke-width="3.25" stroke-linecap="round" stroke-linejoin="round"/>
</svg>
