<svg width="122" height="95" viewBox="0 0 122 95" fill="none" xmlns="http://www.w3.org/2000/svg">
<mask id="path-1-outside-1_2095_1943" maskUnits="userSpaceOnUse" x="-0.158203" y="-0.436523" width="122" height="96" fill="black">
<rect fill="white" x="-0.158203" y="-0.436523" width="122" height="96"/>
<path fill-rule="evenodd" clip-rule="evenodd" d="M85.9032 23.1276C85.9257 23.1285 85.9484 23.129 85.9712 23.129C85.994 23.129 86.0166 23.1285 86.0391 23.1276H110.859C113.139 23.1276 115.225 24.1467 116.584 25.9422C117.942 27.6892 118.427 29.97 117.845 32.1538L103.921 85.6802C103.048 89.1742 99.8457 91.6006 96.2556 91.6006H82.3761C83.2736 89.824 83.7384 87.9973 83.7384 86.2172C83.7384 81.9952 81.1671 76.2689 77.1403 71.6103C72.3858 66.1266 66.6609 63.0693 60.9361 63.0693C54.1439 63.0693 47.2062 67.4854 42.3061 74.8616C39.6378 78.8409 38.1338 82.9658 38.1338 86.2172C38.1338 87.9973 38.5986 89.824 39.4961 91.6006H25.5199C21.9298 91.6006 18.7762 89.1742 17.8544 85.6802L3.93049 32.1538C3.3483 29.97 3.83344 27.7377 5.19188 25.9422C6.59883 24.1467 8.68502 23.1276 10.9167 23.1276H35.7381C35.7606 23.1285 35.7833 23.129 35.8061 23.129C35.8288 23.129 35.8515 23.1285 35.874 23.1276H85.9032ZM87.4266 20.2644V12.9866C87.4266 6.14419 81.8473 0.563477 75.0067 0.563477H46.7706C39.9299 0.563477 34.3506 6.14419 34.3506 12.9866V20.2644H10.9652C7.81173 20.2644 4.9008 21.7203 2.96017 24.1952C1.01955 26.6701 0.388814 29.873 1.16506 32.9303L15.0891 86.4566C16.302 91.2124 20.6198 94.5608 25.5684 94.5608H79.6202C79.6507 94.563 79.6811 94.564 79.7116 94.564C79.7406 94.564 79.7697 94.563 79.7987 94.5608H96.2556C101.204 94.5608 105.522 91.2124 106.783 86.4566L120.708 32.9303C121.484 29.873 120.853 26.6701 118.912 24.1952C116.972 21.7203 114.061 20.2644 110.907 20.2644H87.4266ZM37.2615 20.2644H84.5157V12.9866C84.5157 7.74561 80.2463 3.47516 75.0067 3.47516H46.7706C41.5309 3.47516 37.2615 7.74561 37.2615 12.9866V20.2644ZM80.779 86.2172C80.779 87.9531 80.1582 89.8054 78.986 91.6006H42.8477C41.6252 89.8297 40.9962 87.9645 40.9962 86.2172C40.9962 83.5481 42.4032 79.9085 44.6834 76.4631C49.0013 69.9118 55.0657 65.981 60.8876 65.981C71.7551 65.981 80.779 79.3747 80.779 86.2172ZM60.8859 54.0455C57.0046 54.0455 53.8996 50.2603 53.8996 45.6016C53.8996 40.9429 57.0531 37.1577 60.8859 37.1577C64.7671 37.1577 67.8721 40.9429 67.8721 45.6016C67.9206 50.2603 64.7671 54.0455 60.8859 54.0455ZM60.8859 40.0694C58.6542 40.0694 56.8106 42.5443 56.8106 45.6016C56.8106 48.6103 58.7027 51.1338 60.8859 51.1338C63.1176 51.1338 64.9611 48.6103 64.9611 45.6016C65.0096 42.5443 63.1661 40.0694 60.8859 40.0694ZM27.748 57.5364C27.748 62.1951 30.8531 65.9803 34.7343 65.9803C38.6155 65.9803 41.7691 62.1951 41.7206 57.5364C41.7206 52.8777 38.6155 49.0925 34.7343 49.0925C30.9016 49.0925 27.748 52.8777 27.748 57.5364ZM30.659 57.5364C30.659 54.4791 32.5026 52.0042 34.7343 52.0042C37.0145 52.0042 38.8096 54.4791 38.8096 57.5364C38.8096 60.5937 36.966 63.0686 34.7343 63.0686C32.5026 63.0686 30.659 60.5937 30.659 57.5364ZM80.0537 57.5362C80.0537 62.1949 83.1587 65.9801 87.0399 65.9801C90.9212 65.9801 94.0262 62.1949 94.0262 57.5362C94.0262 52.8775 90.9212 49.0923 87.0399 49.0923C83.2072 49.0923 80.0537 52.8775 80.0537 57.5362ZM82.9646 57.5362C82.9646 54.4789 84.8082 52.004 87.0399 52.004C89.3201 52.004 91.1153 54.4789 91.1153 57.5362C91.1153 60.5449 89.2716 63.0684 87.0399 63.0684C84.8567 63.0684 82.9646 60.5449 82.9646 57.5362Z"/>
</mask>
<path fill-rule="evenodd" clip-rule="evenodd" d="M85.9032 23.1276C85.9257 23.1285 85.9484 23.129 85.9712 23.129C85.994 23.129 86.0166 23.1285 86.0391 23.1276H110.859C113.139 23.1276 115.225 24.1467 116.584 25.9422C117.942 27.6892 118.427 29.97 117.845 32.1538L103.921 85.6802C103.048 89.1742 99.8457 91.6006 96.2556 91.6006H82.3761C83.2736 89.824 83.7384 87.9973 83.7384 86.2172C83.7384 81.9952 81.1671 76.2689 77.1403 71.6103C72.3858 66.1266 66.6609 63.0693 60.9361 63.0693C54.1439 63.0693 47.2062 67.4854 42.3061 74.8616C39.6378 78.8409 38.1338 82.9658 38.1338 86.2172C38.1338 87.9973 38.5986 89.824 39.4961 91.6006H25.5199C21.9298 91.6006 18.7762 89.1742 17.8544 85.6802L3.93049 32.1538C3.3483 29.97 3.83344 27.7377 5.19188 25.9422C6.59883 24.1467 8.68502 23.1276 10.9167 23.1276H35.7381C35.7606 23.1285 35.7833 23.129 35.8061 23.129C35.8288 23.129 35.8515 23.1285 35.874 23.1276H85.9032ZM87.4266 20.2644V12.9866C87.4266 6.14419 81.8473 0.563477 75.0067 0.563477H46.7706C39.9299 0.563477 34.3506 6.14419 34.3506 12.9866V20.2644H10.9652C7.81173 20.2644 4.9008 21.7203 2.96017 24.1952C1.01955 26.6701 0.388814 29.873 1.16506 32.9303L15.0891 86.4566C16.302 91.2124 20.6198 94.5608 25.5684 94.5608H79.6202C79.6507 94.563 79.6811 94.564 79.7116 94.564C79.7406 94.564 79.7697 94.563 79.7987 94.5608H96.2556C101.204 94.5608 105.522 91.2124 106.783 86.4566L120.708 32.9303C121.484 29.873 120.853 26.6701 118.912 24.1952C116.972 21.7203 114.061 20.2644 110.907 20.2644H87.4266ZM37.2615 20.2644H84.5157V12.9866C84.5157 7.74561 80.2463 3.47516 75.0067 3.47516H46.7706C41.5309 3.47516 37.2615 7.74561 37.2615 12.9866V20.2644ZM80.779 86.2172C80.779 87.9531 80.1582 89.8054 78.986 91.6006H42.8477C41.6252 89.8297 40.9962 87.9645 40.9962 86.2172C40.9962 83.5481 42.4032 79.9085 44.6834 76.4631C49.0013 69.9118 55.0657 65.981 60.8876 65.981C71.7551 65.981 80.779 79.3747 80.779 86.2172ZM60.8859 54.0455C57.0046 54.0455 53.8996 50.2603 53.8996 45.6016C53.8996 40.9429 57.0531 37.1577 60.8859 37.1577C64.7671 37.1577 67.8721 40.9429 67.8721 45.6016C67.9206 50.2603 64.7671 54.0455 60.8859 54.0455ZM60.8859 40.0694C58.6542 40.0694 56.8106 42.5443 56.8106 45.6016C56.8106 48.6103 58.7027 51.1338 60.8859 51.1338C63.1176 51.1338 64.9611 48.6103 64.9611 45.6016C65.0096 42.5443 63.1661 40.0694 60.8859 40.0694ZM27.748 57.5364C27.748 62.1951 30.8531 65.9803 34.7343 65.9803C38.6155 65.9803 41.7691 62.1951 41.7206 57.5364C41.7206 52.8777 38.6155 49.0925 34.7343 49.0925C30.9016 49.0925 27.748 52.8777 27.748 57.5364ZM30.659 57.5364C30.659 54.4791 32.5026 52.0042 34.7343 52.0042C37.0145 52.0042 38.8096 54.4791 38.8096 57.5364C38.8096 60.5937 36.966 63.0686 34.7343 63.0686C32.5026 63.0686 30.659 60.5937 30.659 57.5364ZM80.0537 57.5362C80.0537 62.1949 83.1587 65.9801 87.0399 65.9801C90.9212 65.9801 94.0262 62.1949 94.0262 57.5362C94.0262 52.8775 90.9212 49.0923 87.0399 49.0923C83.2072 49.0923 80.0537 52.8775 80.0537 57.5362ZM82.9646 57.5362C82.9646 54.4789 84.8082 52.004 87.0399 52.004C89.3201 52.004 91.1153 54.4789 91.1153 57.5362C91.1153 60.5449 89.2716 63.0684 87.0399 63.0684C84.8567 63.0684 82.9646 60.5449 82.9646 57.5362Z" fill="#4E4E50"/>
<path d="M85.9032 23.1276L85.9138 22.8776H85.9032V23.1276ZM86.0391 23.1276V22.8773L86.0285 22.8778L86.0391 23.1276ZM116.584 25.9422L116.384 26.0931L116.386 26.0957L116.584 25.9422ZM117.845 32.1538L117.603 32.0894L117.603 32.0908L117.845 32.1538ZM103.921 85.6802L103.679 85.6172L103.679 85.6196L103.921 85.6802ZM82.3761 91.6006L82.153 91.4879L81.9697 91.8506H82.3761V91.6006ZM77.1403 71.6103L77.3295 71.4468L77.3292 71.4465L77.1403 71.6103ZM42.3061 74.8616L42.5138 75.0008L42.5144 74.9999L42.3061 74.8616ZM39.4961 91.6006V91.8506H39.9024L39.7192 91.4879L39.4961 91.6006ZM17.8544 85.6802L17.6125 85.7431L17.6127 85.744L17.8544 85.6802ZM3.93049 32.1538L4.17244 32.0908L4.17205 32.0894L3.93049 32.1538ZM5.19188 25.9422L4.99507 25.788L4.99251 25.7914L5.19188 25.9422ZM35.7381 23.1276L35.7487 22.8776H35.7381V23.1276ZM35.874 23.1276V22.8773L35.8634 22.8778L35.874 23.1276ZM87.4266 20.2644H87.1766V20.5144H87.4266V20.2644ZM34.3506 20.2644V20.5144H34.6006V20.2644H34.3506ZM2.96017 24.1952L2.76344 24.041L2.96017 24.1952ZM1.16506 32.9303L0.922748 32.9918L0.923116 32.9932L1.16506 32.9303ZM15.0891 86.4566L15.3313 86.3948L15.331 86.3937L15.0891 86.4566ZM79.6202 94.5608L79.6377 94.3114L79.629 94.3108H79.6202V94.5608ZM79.7987 94.5608V94.3108H79.7896L79.7805 94.3115L79.7987 94.5608ZM106.783 86.4566L107.025 86.5207L107.025 86.5196L106.783 86.4566ZM120.708 32.9303L120.949 32.9932L120.95 32.9918L120.708 32.9303ZM84.5157 20.2644V20.5144H84.7657V20.2644H84.5157ZM37.2615 20.2644H37.0115V20.5144H37.2615V20.2644ZM78.986 91.6006V91.8506H79.1213L79.1953 91.7373L78.986 91.6006ZM42.8477 91.6006L42.642 91.7426L42.7165 91.8506H42.8477V91.6006ZM44.6834 76.4631L44.8919 76.601L44.8921 76.6006L44.6834 76.4631ZM67.8721 45.6016H67.622L67.6221 45.6042L67.8721 45.6016ZM64.9611 45.6016L64.7111 45.5976V45.6016H64.9611ZM41.7206 57.5364H41.4705L41.4706 57.539L41.7206 57.5364ZM85.9712 22.879C85.9519 22.879 85.9328 22.8786 85.9138 22.8778L85.8926 23.3773C85.9187 23.3784 85.9448 23.379 85.9712 23.379V22.879ZM86.0285 22.8778C86.0095 22.8786 85.9904 22.879 85.9712 22.879V23.379C85.9975 23.379 86.0237 23.3784 86.0497 23.3773L86.0285 22.8778ZM110.859 22.8776H86.0391V23.3776H110.859V22.8776ZM116.783 25.7914C115.376 23.9318 113.215 22.8776 110.859 22.8776V23.3776C113.063 23.3776 115.074 24.3615 116.384 26.0931L116.783 25.7914ZM118.087 32.2182C118.689 29.9579 118.187 27.5967 116.781 25.7888L116.386 26.0957C117.697 27.7817 118.165 29.9821 117.603 32.0894L118.087 32.2182ZM104.163 85.7431L118.087 32.2167L117.603 32.0908L103.679 85.6172L104.163 85.7431ZM96.2556 91.8506C99.9571 91.8506 103.262 89.3494 104.164 85.7408L103.679 85.6196C102.834 88.999 99.7344 91.3506 96.2556 91.3506V91.8506ZM82.3761 91.8506H96.2556V91.3506H82.3761V91.8506ZM83.4884 86.2172C83.4884 87.9534 83.0351 89.7417 82.153 91.4879L82.5992 91.7133C83.5121 89.9062 83.9884 88.0412 83.9884 86.2172H83.4884ZM76.9512 71.7737C80.9558 76.4067 83.4884 82.077 83.4884 86.2172H83.9884C83.9884 81.9135 81.3785 76.1312 77.3295 71.4468L76.9512 71.7737ZM60.9361 63.3193C66.5685 63.3193 72.2295 66.328 76.9514 71.774L77.3292 71.4465C72.5421 65.9252 66.7534 62.8193 60.9361 62.8193V63.3193ZM42.5144 74.9999C47.3843 67.669 54.2533 63.3193 60.9361 63.3193V62.8193C54.0346 62.8193 47.028 67.3017 42.0979 74.7233L42.5144 74.9999ZM38.3838 86.2172C38.3838 83.0331 39.8611 78.9567 42.5138 75.0008L42.0985 74.7224C39.4144 78.7251 37.8838 82.8985 37.8838 86.2172H38.3838ZM39.7192 91.4879C38.8371 89.7417 38.3838 87.9534 38.3838 86.2172H37.8838C37.8838 88.0412 38.3601 89.9062 39.2729 91.7133L39.7192 91.4879ZM25.5199 91.8506H39.4961V91.3506H25.5199V91.8506ZM17.6127 85.744C18.5634 89.3475 21.816 91.8506 25.5199 91.8506V91.3506C22.0436 91.3506 18.9891 89.001 18.0962 85.6164L17.6127 85.744ZM3.68854 32.2167L17.6125 85.7431L18.0964 85.6172L4.17243 32.0908L3.68854 32.2167ZM4.99251 25.7914C3.58996 27.6452 3.08592 29.9563 3.68892 32.2182L4.17205 32.0894C3.61068 29.9837 4.07693 27.8303 5.39125 26.0931L4.99251 25.7914ZM10.9167 22.8776C8.60701 22.8776 6.4487 23.9329 4.9951 25.788L5.38866 26.0964C6.74896 24.3604 8.76304 23.3776 10.9167 23.3776V22.8776ZM35.7381 22.8776H10.9167V23.3776H35.7381V22.8776ZM35.8061 22.879C35.7868 22.879 35.7677 22.8786 35.7487 22.8778L35.7275 23.3773C35.7536 23.3784 35.7797 23.379 35.8061 23.379V22.879ZM35.8634 22.8778C35.8444 22.8786 35.8253 22.879 35.8061 22.879V23.379C35.8324 23.379 35.8586 23.3784 35.8846 23.3773L35.8634 22.8778ZM85.9032 22.8776H35.874V23.3776H85.9032V22.8776ZM87.1766 12.9866V20.2644H87.6766V12.9866H87.1766ZM75.0067 0.813477C81.7092 0.813477 87.1766 6.2822 87.1766 12.9866H87.6766C87.6766 6.00617 81.9855 0.313477 75.0067 0.313477V0.813477ZM46.7706 0.813477H75.0067V0.313477H46.7706V0.813477ZM34.6006 12.9866C34.6006 6.2822 40.068 0.813477 46.7706 0.813477V0.313477C39.7917 0.313477 34.1006 6.00618 34.1006 12.9866H34.6006ZM34.6006 20.2644V12.9866H34.1006V20.2644H34.6006ZM34.3506 20.0144H10.9652V20.5144H34.3506V20.0144ZM10.9652 20.0144C7.7329 20.0144 4.75019 21.5072 2.76344 24.041L3.15691 24.3495C5.05141 21.9334 7.89056 20.5144 10.9652 20.5144V20.0144ZM2.76344 24.041C0.773258 26.5791 0.128142 29.8622 0.922752 32.9918L1.40737 32.8687C0.649487 29.8838 1.26585 26.7612 3.15691 24.3495L2.76344 24.041ZM0.923116 32.9932L14.8471 86.5196L15.331 86.3937L1.40701 32.8673L0.923116 32.9932ZM14.8468 86.5184C16.0881 91.3856 20.5063 94.8108 25.5684 94.8108V94.3108C20.7333 94.3108 16.5158 91.0391 15.3313 86.3948L14.8468 86.5184ZM25.5684 94.8108H79.6202V94.3108H25.5684V94.8108ZM79.6028 94.8102C79.6391 94.8128 79.6753 94.814 79.7116 94.814V94.314C79.687 94.314 79.6623 94.3132 79.6377 94.3114L79.6028 94.8102ZM79.7116 94.814C79.7468 94.814 79.7819 94.8127 79.8168 94.8102L79.7805 94.3115C79.7574 94.3132 79.7345 94.314 79.7116 94.314V94.814ZM79.7987 94.8108H96.2556V94.3108H79.7987V94.8108ZM96.2556 94.8108C101.318 94.8108 105.735 91.3855 107.025 86.5207L106.542 86.3925C105.309 91.0392 101.09 94.3108 96.2556 94.3108V94.8108ZM107.025 86.5196L120.949 32.9932L120.466 32.8673L106.541 86.3937L107.025 86.5196ZM120.95 32.9918C121.744 29.8622 121.099 26.5791 119.109 24.041L118.716 24.3495C120.607 26.7612 121.223 29.8838 120.465 32.8687L120.95 32.9918ZM119.109 24.041C117.122 21.5072 114.14 20.0144 110.907 20.0144V20.5144C113.982 20.5144 116.821 21.9334 118.716 24.3495L119.109 24.041ZM110.907 20.0144H87.4266V20.5144H110.907V20.0144ZM84.5157 20.0144H37.2615V20.5144H84.5157V20.0144ZM84.7657 20.2644V12.9866H84.2657V20.2644H84.7657ZM84.7657 12.9866C84.7657 7.6076 80.3845 3.22516 75.0067 3.22516V3.72516C80.1082 3.72516 84.2657 7.88362 84.2657 12.9866H84.7657ZM75.0067 3.22516H46.7706V3.72516H75.0067V3.22516ZM46.7706 3.22516C41.3927 3.22516 37.0115 7.6076 37.0115 12.9866H37.5115C37.5115 7.88362 41.669 3.72516 46.7706 3.72516V3.22516ZM37.0115 12.9866V20.2644H37.5115V12.9866H37.0115ZM79.1953 91.7373C80.3875 89.9115 81.029 88.0124 81.029 86.2172H80.529C80.529 87.8937 79.9289 89.6993 78.7767 91.4639L79.1953 91.7373ZM42.8477 91.8506H78.986V91.3506H42.8477V91.8506ZM40.7462 86.2172C40.7462 88.0244 41.3963 89.9383 42.642 91.7426L43.0534 91.4585C41.854 89.7212 41.2462 87.9045 41.2462 86.2172H40.7462ZM44.4749 76.3251C42.1829 79.7884 40.7462 83.4772 40.7462 86.2172H41.2462C41.2462 83.619 42.6235 80.0287 44.8919 76.601L44.4749 76.3251ZM60.8876 65.731C54.9535 65.731 48.8208 69.7313 44.4747 76.3255L44.8921 76.6006C49.1817 70.0923 55.1779 66.231 60.8876 66.231V65.731ZM81.029 86.2172C81.029 84.4577 80.4507 82.3008 79.4265 80.0645C78.4007 77.8248 76.9202 75.4893 75.0982 73.3702C71.4601 69.1389 66.4241 65.731 60.8876 65.731V66.231C66.2186 66.231 71.1283 69.52 74.719 73.6962C76.5114 75.7807 77.9661 78.0767 78.9719 80.2727C79.9793 82.4722 80.529 84.5554 80.529 86.2172H81.029ZM53.6496 45.6016C53.6496 50.3513 56.8238 54.2955 60.8859 54.2955V53.7955C57.1855 53.7955 54.1496 50.1693 54.1496 45.6016H53.6496ZM60.8859 36.9077C56.8733 36.9077 53.6496 40.8507 53.6496 45.6016H54.1496C54.1496 41.0351 57.233 37.4077 60.8859 37.4077V36.9077ZM68.1221 45.6016C68.1221 40.8519 64.948 36.9077 60.8859 36.9077V37.4077C64.5862 37.4077 67.6221 41.0339 67.6221 45.6016H68.1221ZM60.8859 54.2955C64.946 54.2955 68.1716 50.3533 68.122 45.599L67.6221 45.6042C67.6696 50.1672 64.5882 53.7955 60.8859 53.7955V54.2955ZM57.0606 45.6016C57.0606 44.1214 57.5072 42.7916 58.2124 41.8376C58.9179 40.8832 59.8686 40.3194 60.8859 40.3194V39.8194C59.6714 39.8194 58.5845 40.493 57.8103 41.5404C57.0357 42.5883 56.5606 44.0246 56.5606 45.6016H57.0606ZM60.8859 50.8838C59.8955 50.8838 58.944 50.3106 58.2304 49.3472C57.5181 48.3856 57.0606 47.0554 57.0606 45.6016H56.5606C56.5606 47.1565 57.049 48.5924 57.8286 49.6448C58.6068 50.6953 59.693 51.3838 60.8859 51.3838V50.8838ZM64.7111 45.6016C64.7111 47.0569 64.2648 48.3872 63.5589 49.348C62.8524 50.3096 61.9014 50.8838 60.8859 50.8838V51.3838C62.102 51.3838 63.1887 50.6963 63.9619 49.644C64.7356 48.5909 65.2111 47.155 65.2111 45.6016H64.7111ZM60.8859 40.3194C61.9292 40.3194 62.8916 40.885 63.5957 41.8376C64.3 42.7904 64.7346 44.1186 64.7112 45.5976L65.2111 45.6056C65.2361 44.0274 64.7733 42.5895 63.9978 41.5404C63.2223 40.4913 62.1228 39.8194 60.8859 39.8194V40.3194ZM34.7343 65.7303C31.0339 65.7303 27.998 62.1041 27.998 57.5364H27.498C27.498 62.2861 30.6722 66.2303 34.7343 66.2303V65.7303ZM41.4706 57.539C41.5181 62.102 38.4367 65.7303 34.7343 65.7303V66.2303C38.7944 66.2303 42.0201 62.2882 41.9705 57.5338L41.4706 57.539ZM34.7343 49.3425C38.4347 49.3425 41.4706 52.9687 41.4706 57.5364H41.9706C41.9706 52.7867 38.7964 48.8425 34.7343 48.8425V49.3425ZM27.998 57.5364C27.998 52.9699 31.0814 49.3425 34.7343 49.3425V48.8425C30.7217 48.8425 27.498 52.7855 27.498 57.5364H27.998ZM34.7343 51.7542C33.5199 51.7542 32.4329 52.4278 31.6587 53.4752C30.8841 54.5231 30.409 55.9594 30.409 57.5364H30.909C30.909 56.0562 31.3556 54.7264 32.0608 53.7724C32.7663 52.818 33.717 52.2542 34.7343 52.2542V51.7542ZM39.0596 57.5364C39.0596 55.9609 38.5974 54.5246 37.8287 53.476C37.0595 52.4269 35.972 51.7542 34.7343 51.7542V52.2542C35.7768 52.2542 36.727 52.819 37.4254 53.7716C38.1243 54.7248 38.5596 56.0546 38.5596 57.5364H39.0596ZM34.7343 63.3186C35.9487 63.3186 37.0357 62.645 37.8099 61.5976C38.5845 60.5497 39.0596 59.1134 39.0596 57.5364H38.5596C38.5596 59.0166 38.113 60.3464 37.4078 61.3004C36.7023 62.2548 35.7516 62.8186 34.7343 62.8186V63.3186ZM30.409 57.5364C30.409 59.1134 30.8841 60.5497 31.6587 61.5976C32.4329 62.645 33.5199 63.3186 34.7343 63.3186V62.8186C33.717 62.8186 32.7663 62.2548 32.0608 61.3004C31.3556 60.3464 30.909 59.0166 30.909 57.5364H30.409ZM87.0399 65.7301C83.3395 65.7301 80.3037 62.1039 80.3037 57.5362H79.8037C79.8037 62.2858 82.9778 66.2301 87.0399 66.2301V65.7301ZM93.7762 57.5362C93.7762 62.1039 90.7403 65.7301 87.0399 65.7301V66.2301C91.102 66.2301 94.2762 62.2858 94.2762 57.5362H93.7762ZM87.0399 49.3423C90.7403 49.3423 93.7762 52.9685 93.7762 57.5362H94.2762C94.2762 52.7865 91.102 48.8423 87.0399 48.8423V49.3423ZM80.3037 57.5362C80.3037 52.9697 83.387 49.3423 87.0399 49.3423V48.8423C83.0273 48.8423 79.8037 52.7853 79.8037 57.5362H80.3037ZM87.0399 51.754C85.8255 51.754 84.7386 52.4276 83.9643 53.475C83.1898 54.5228 82.7146 55.9591 82.7146 57.5362H83.2146C83.2146 56.0559 83.6613 54.7261 84.3664 53.7722C85.0719 52.8178 86.0226 52.254 87.0399 52.254V51.754ZM91.3653 57.5362C91.3653 55.9607 90.9031 54.5244 90.1343 53.4758C89.3651 52.4267 88.2776 51.754 87.0399 51.754V52.254C88.0824 52.254 89.0326 52.8187 89.7311 53.7714C90.4299 54.7246 90.8653 56.0544 90.8653 57.5362H91.3653ZM87.0399 63.3184C88.2561 63.3184 89.3428 62.6308 90.116 61.5786C90.8898 60.5254 91.3653 59.0896 91.3653 57.5362H90.8653C90.8653 58.9915 90.419 60.3218 89.713 61.2825C89.0064 62.2442 88.0555 62.8184 87.0399 62.8184V63.3184ZM82.7146 57.5362C82.7146 59.0911 83.2031 60.527 83.9827 61.5794C84.7609 62.6299 85.8471 63.3184 87.0399 63.3184V62.8184C86.0496 62.8184 85.0981 62.2451 84.3845 61.2817C83.6722 60.3202 83.2146 58.99 83.2146 57.5362H82.7146Z" fill="#4E4E50" mask="url(#path-1-outside-1_2095_1943)"/>
</svg>
