<svg width="762" height="763" viewBox="0 0 762 763" fill="none" xmlns="http://www.w3.org/2000/svg">
<path d="M699.894 513.61C681.649 553.901 656.562 590.392 626.153 621.561C595.744 652.73 559.254 677.817 519.723 696.062C427.736 738.635 327.387 739.395 239.962 706.706C151.776 674.016 76.5147 608.637 33.9424 516.651C-8.62984 424.664 -9.39001 324.315 23.2994 236.89C55.9888 148.704 121.368 73.4429 213.354 30.8707C230.839 23.2685 248.324 16.4267 265.809 11.1052C282.534 6.54385 300.779 2.74257 319.785 0.461914L337.27 141.102C327.387 142.623 315.984 144.904 303.82 147.945C292.417 150.985 282.534 154.787 271.891 159.348C215.635 185.195 175.343 231.569 155.577 284.784C135.812 338.76 136.572 400.337 162.42 456.593C188.267 512.85 234.64 553.141 287.856 572.907C341.831 592.672 403.409 591.913 459.665 566.065C483.992 554.662 506.799 538.697 525.044 520.452C544.049 501.446 559.254 479.4 569.897 455.073L699.894 513.61Z" fill="#CAEADB"/>
<path d="M761.451 407.184C753.849 476.364 728.001 541.743 688.47 596.479C648.939 651.214 595.723 696.067 531.865 725.716C448.241 764.487 357.015 771.329 272.63 751.563C188.246 731.037 109.943 683.143 52.9268 610.923L94.7388 578.233C144.153 640.571 211.813 682.383 284.794 699.868C357.775 717.353 437.598 711.271 509.818 677.822C564.554 652.735 610.928 613.964 645.138 566.07C679.347 518.176 701.394 461.92 708.236 401.862L761.451 407.184Z" fill="#C6D6ED"/>
</svg>
